# xmcd CD database file
#
# Track frame offsets:
#	150
#	57610
#	95643
#	149763
#
# Disc length: 2567 seconds
#
# Revision: 0
# Processed by: cddbd v1.5.2PL0 Copyright (c) Steve Scherf et al.
# Submitted via: CDex 1.70beta2
#
DISCID=3f0a0504
DTITLE=Dizzy Gillespie - Modern Jazz Modern Mainstream 1956 CD 094
DYEAR=2008
DGENRE=Jazz
TTITLE0=Be-Bop
TTITLE1=Wee
TTITLE2=Dark Eyes
TTITLE3=Love Come Back To Me
EXTD=YEAR: 2008
EXTT0=
EXTT1=
EXTT2=
EXTT3=
PLAYORDER=
